[Header]
FileType HTR
DataType HTRS
FileVersion 1
NumSegments 64
NumFrames 4
DataFrameRate 30
EulerRotationOrder ZYX
CalibrationUnits mm
RotationUnits Degrees
GlobalAxisofGravity Y
BoneLengthAxis Y
ScaleFactor 1.0
[SegmentNames&Hierarchy]
Hips	GLOBAL
Spine	Hips
Spine1	Spine
Spine2	Spine1
Neck	Spine2
Head	Neck
LeftEye	Head
RightEye	Head
LeftShoulder	Spine2
LeftArm	LeftShoulder
LeftForeArm	LeftArm
LeftHand	LeftForeArm
LeftHandThumb1	LeftHand
LeftHandThumb2	LeftHandThumb1
LeftHandThumb3	LeftHandThumb2
LeftHandThumb4	LeftHandThumb3
LeftHandIndex1	LeftHand
LeftHandIndex2	LeftHandIndex1
LeftHandIndex3	LeftHandIndex2
LeftHandIndex4	LeftHandIndex3
LeftHandMiddle1	LeftHand
LeftHandMiddle2	LeftHandMiddle1
LeftHandMiddle3	LeftHandMiddle2
LeftHandMiddle4	LeftHandMiddle3
LeftHandRing1	LeftHand
LeftHandRing2	LeftHandRing1
LeftHandRing3	LeftHandRing2
LeftHandRing4	LeftHandRing3
LeftHandPinky1	LeftHand
LeftHandPinky2	LeftHandPinky1
LeftHandPinky3	LeftHandPinky2
LeftHandPinky4	LeftHandPinky3
RightShoulder	Spine2
RightArm	RightShoulder
RightForeArm	RightArm
RightHand	RightForeArm
RightHandPinky1	RightHand
RightHandPinky2	RightHandPinky1
RightHandPinky3	RightHandPinky2
RightHandPinky4	RightHandPinky3
RightHandRing1	RightHand
RightHandRing2	RightHandRing1
RightHandRing3	RightHandRing2
RightHandRing4	RightHandRing3
RightHandMiddle1	RightHand
RightHandMiddle2	RightHandMiddle1
RightHandMiddle3	RightHandMiddle2
RightHandMiddle4	RightHandMiddle3
RightHandIndex1	RightHand
RightHandIndex2	RightHandIndex1
RightHandIndex3	RightHandIndex2
RightHandIndex4	RightHandIndex3
RightHandThumb1	RightHand
RightHandThumb2	RightHandThumb1
RightHandThumb3	RightHandThumb2
RightHandThumb4	RightHandThumb3
LeftUpLeg	Hips
LeftLeg	LeftUpLeg
LeftFoot	LeftLeg
LeftToeBase	LeftFoot
RightUpLeg	Hips
RightLeg	RightUpLeg
RightFoot	RightLeg
RightToeBase	RightFoot
[BasePosition]
Hips	0	0	0	0	0	0	1
Spine	0	0	0	0	0	0	1
Spine1	0	0	0	0	0	0	1
Spine2	0	0	0	0	0	0	1
Neck	0	0	0	0	0	0	1
Head	0	0	0	0	0	0	1
LeftEye	0	0	0	0	0	0	1
RightEye	0	0	0	0	0	0	1
LeftShoulder	0	0	0	0	0	0	1
LeftArm	0	0	0	0	0	0	1
LeftForeArm	0	0	0	0	0	0	1
LeftHand	0	0	0	0	0	0	1
LeftHandThumb1	0	0	0	0	0	0	1
LeftHandThumb2	0	0	0	0	0	0	1
LeftHandThumb3	0	0	0	0	0	0	1
LeftHandThumb4	0	0	0	0	0	0	1
LeftHandIndex1	0	0	0	0	0	0	1
LeftHandIndex2	0	0	0	0	0	0	1
LeftHandIndex3	0	0	0	0	0	0	1
LeftHandIndex4	0	0	0	0	0	0	1
LeftHandMiddle1	0	0	0	0	0	0	1
LeftHandMiddle2	0	0	0	0	0	0	1
LeftHandMiddle3	0	0	0	0	0	0	1
LeftHandMiddle4	0	0	0	0	0	0	1
LeftHandRing1	0	0	0	0	0	0	1
LeftHandRing2	0	0	0	0	0	0	1
LeftHandRing3	0	0	0	0	0	0	1
LeftHandRing4	0	0	0	0	0	0	1
LeftHandPinky1	0	0	0	0	0	0	1
LeftHandPinky2	0	0	0	0	0	0	1
LeftHandPinky3	0	0	0	0	0	0	1
LeftHandPinky4	0	0	0	0	0	0	1
RightShoulder	0	0	0	0	0	0	1
RightArm	0	0	0	0	0	0	1
RightForeArm	0	0	0	0	0	0	1
RightHand	0	0	0	0	0	0	1
RightHandPinky1	0	0	0	0	0	0	1
RightHandPinky2	0	0	0	0	0	0	1
RightHandPinky3	0	0	0	0	0	0	1
RightHandPinky4	0	0	0	0	0	0	1
RightHandRing1	0	0	0	0	0	0	1
RightHandRing2	0	0	0	0	0	0	1
RightHandRing3	0	0	0	0	0	0	1
RightHandRing4	0	0	0	0	0	0	1
RightHandMiddle1	0	0	0	0	0	0	1
RightHandMiddle2	0	0	0	0	0	0	1
RightHandMiddle3	0	0	0	0	0	0	1
RightHandMiddle4	0	0	0	0	0	0	1
RightHandIndex1	0	0	0	0	0	0	1
RightHandIndex2	0	0	0	0	0	0	1
RightHandIndex3	0	0	0	0	0	0	1
RightHandIndex4	0	0	0	0	0	0	1
RightHandThumb1	0	0	0	0	0	0	1
RightHandThumb2	0	0	0	0	0	0	1
RightHandThumb3	0	0	0	0	0	0	1
RightHandThumb4	0	0	0	0	0	0	1
LeftUpLeg	0	0	0	0	0	0	1
LeftLeg	0	0	0	0	0	0	1
LeftFoot	0	0	0	0	0	0	1
LeftToeBase	0	0	0	0	0	0	1
RightUpLeg	0	0	0	0	0	0	1
RightLeg	0	0	0	0	0	0	1
RightFoot	0	0	0	0	0	0	1
RightToeBase	0	0	0	0	0	0	1
[Hips]
34	-14.9569416	1014.702515	8.301567078	3.815187454	-2.337225437	-7.984085083	1.0
35	-15.06525803	1015.607605	9.128681183	3.368633986	-2.466471434	-7.710488796	1.0
36	-15.08517265	1016.527466	10.00934219	2.912952185	-2.635648727	-7.422047615	1.0
37	-14.98128319	1017.450928	10.96020794	2.454581738	-2.864239931	-7.117873192	1.0
[Spine]
34	0	101.8159943	1.315000057	4.650593281	1.668382764	1.977705717	1.0
35	0	101.8159943	1.315000057	4.568532944	1.669664502	2.014183044	1.0
36	0	101.8159943	1.315000057	4.482831955	1.66687417	2.053820372	1.0
37	0	101.8159943	1.315000057	4.393363476	1.657848716	2.097374439	1.0
[Spine1]
34	0	100.8349991	-10.00800037	2.481744289	0.6791170239	0.4040918946	1.0
35	0	100.8349991	-10.00800037	2.389862537	0.6915100813	0.4592660069	1.0
36	0	100.8349991	-10.00800037	2.294589996	0.6968743801	0.5190089345	1.0
37	0	100.8349991	-10.00800037	2.196242809	0.6908910871	0.584710598	1.0
[Spine2]
34	0	91	-13.73399925	2.461007357	0.7200037241	0.4165548682	1.0
35	0	91	-13.73399925	2.368966341	0.7308347225	0.4716775715	1.0
36	0	91	-13.73399925	2.27352047	0.7345782518	0.5313301086	1.0
37	0	91	-13.73399925	2.174978256	0.7269557118	0.5968695879	1.0
[Neck]
34	0	166.7169952	-25.16200066	6.483930111	0.9084471464	-2.494943142	1.0
35	0	166.7169952	-25.16200066	6.599088192	0.8623970747	-2.35481286	1.0
36	0	166.7169952	-25.16200066	6.70732069	0.8220152855	-2.225197792	1.0
37	0	166.7169952	-25.16200066	6.798782349	0.7918457389	-2.10657835	1.0
[Head]
34	0	96.17900085	16.84999847	-18.57737732	3.925092936	-0.5234865546	1.0
35	0	96.17900085	16.84999847	-17.67033386	3.565385818	-0.8225836158	1.0
36	0	96.17900085	16.84999847	-16.7418232	3.285461426	-1.127018571	1.0
37	0	96.17900085	16.84999847	-15.79380035	3.139280319	-1.418228149	1.0
[LeftEye]
34	30.6760006	64.09500122	92.83599854	0	0	0	1.0
35	30.6760006	64.09500122	92.83599854	0	0	0	1.0
36	30.6760006	64.09500122	92.83599854	0	0	0	1.0
37	30.6760006	64.09500122	92.83599854	0	0	0	1.0
[RightEye]
34	-30.6760006	64.09500122	92.83499908	0	0	0	1.0
35	-30.6760006	64.09500122	92.83499908	0	0	0	1.0
36	-30.6760006	64.09500122	92.83499908	0	0	0	1.0
37	-30.6760006	64.09500122	92.83499908	0	0	0	1.0
[LeftShoulder]
34	45.70400238	109.4599991	-26.28000069	5.334075928	-16.68162918	-15.95025921	1.0
35	45.70400238	109.4599991	-26.28000069	5.304235935	-16.61011124	-15.88862419	1.0
36	45.70400238	109.4599991	-26.28000069	5.271279335	-16.5407505	-15.80369568	1.0
37	45.70400238	109.4599991	-26.28000069	5.231957436	-16.46943665	-15.68200588	1.0
[LeftArm]
34	105.923996	-5.24600029	-22.32099915	16.00930595	-9.19914341	-61.48757935	1.0
35	105.923996	-5.24600029	-22.32099915	15.4516201	-8.637001991	-61.52170181	1.0
36	105.923996	-5.24600029	-22.32099915	14.99816513	-8.063171387	-61.6557312	1.0
37	105.923996	-5.24600029	-22.32099915	14.72780704	-7.480229855	-61.97357178	1.0
[LeftForeArm]
34	278.414978	-0.0009999999311	0	4.209702524e-07	-1.422260523	-0.0002069820912	1.0
35	278.414978	-0.0009999999311	0	2.06734444e-06	-0.9620675445	-0.0002143716847	1.0
36	278.414978	-0.0009999999311	0	3.406979204e-06	-0.5761567354	-0.0002206108329	1.0
37	278.414978	-0.0009999999311	0	4.008723408e-06	-0.3228861094	-0.0002233448613	1.0
[LeftHand]
34	283.2879944	0	0	-33.11656952	-1.31572938	3.320858717	1.0
35	283.2879944	0	0	-32.70463943	-1.759293795	2.289916277	1.0
36	283.2879944	0	0	-32.36095428	-2.17374897	1.317663908	1.0
37	283.2879944	0	0	-32.17998505	-2.545917273	0.5114890337	1.0
[LeftHandThumb1]
34	24.6609993	-15.75	26.8239994	-2.831338167	2.347854137	6.17456913	1.0
35	24.6609993	-15.75	26.8239994	-2.083616734	2.376388788	5.600728989	1.0
36	24.6609993	-15.75	26.8239994	-1.458789229	2.390792847	5.108415604	1.0
37	24.6609993	-15.75	26.8239994	-1.055960894	2.389736176	4.773240089	1.0
[LeftHandThumb2]
34	32.29800034	-18.64699936	18.64699936	19.83087158	18.16147041	18.57058144	1.0
35	32.29800034	-18.64699936	18.64699936	19.86485672	17.79000473	18.78513527	1.0
36	32.29800034	-18.64699936	18.64699936	19.88941574	17.46320152	18.93502617	1.0
37	32.29800034	-18.64699936	18.64699936	19.8973217	17.21187401	18.97748947	1.0
[LeftHandThumb3]
34	26.52600098	-15.31499958	15.31499958	-12.91375923	4.573801517	10.10693359	1.0
35	26.52600098	-15.31499958	15.31499958	-13.00565815	4.706747055	10.11449242	1.0
36	26.52600098	-15.31499958	15.31499958	-13.07505608	4.808952808	10.1340313	1.0
37	26.52600098	-15.31499958	15.31499958	-13.10973358	4.863202095	10.17881489	1.0
[LeftHandThumb4]
34	19.54599953	-11.28499985	11.28499985	0	0	0	1.0
35	19.54599953	-11.28499985	11.28499985	0	0	0	1.0
36	19.54599953	-11.28499985	11.28499985	0	0	0	1.0
37	19.54599953	-11.28499985	11.28499985	0	0	0	1.0
[LeftHandIndex1]
34	91.09299469	-5.170999527	22.60099792	0.4486677349	-0.5988953114	-10.2003727	1.0
35	91.09299469	-5.170999527	22.60099792	0.4791934192	-0.5970489979	-10.14618111	1.0
36	91.09299469	-5.170999527	22.60099792	0.5030664802	-0.5990842581	-10.07195377	1.0
37	91.09299469	-5.170999527	22.60099792	0.5205222964	-0.6078102589	-9.951566696	1.0
[LeftHandIndex2]
34	36.76399994	0	0	-0.2611872554	1.72744894	-17.19435692	1.0
35	36.76399994	0	0	-0.2620681524	1.730292439	-17.22356987	1.0
36	36.76399994	0	0	-0.2628476322	1.732806802	-17.24940491	1.0
37	36.76399994	0	0	-0.2634657323	1.734799504	-17.26987839	1.0
[LeftHandIndex3]
34	28.83100128	0	0	-0.0548534058	0.7988741398	-7.85559845	1.0
35	28.83100128	0	0	-0.05526001379	0.8018156886	-7.884703636	1.0
36	28.83100128	0	0	-0.05562030524	0.8044183254	-7.910457134	1.0
37	28.83100128	0	0	-0.05590651929	0.8064822555	-7.930881023	1.0
[LeftHandIndex4]
34	23.92700005	0	0	0	0	0	1.0
35	23.92700005	0	0	0	0	0	1.0
36	23.92700005	0	0	0	0	0	1.0
37	23.92700005	0	0	0	0	0	1.0
[LeftHandMiddle1]
34	95.33399963	0	0	-1.087953806	2.830192089	-19.87935829	1.0
35	95.33399963	0	0	-1.084525824	2.834493399	-19.83365631	1.0
36	95.33399963	0	0	-1.07817781	2.836520672	-19.74655342	1.0
37	95.33399963	0	0	-1.065893292	2.831373215	-19.57597542	1.0
[LeftHandMiddle2]
34	36.98199844	0	0	-0.2468633801	1.680397511	-16.71188545	1.0
35	36.98199844	0	0	-0.2494806796	1.689094424	-16.80098343	1.0
36	36.98199844	0	0	-0.2518774867	1.697048545	-16.88248062	1.0
37	36.98199844	0	0	-0.2537328005	1.703188062	-16.94539642	1.0
[LeftHandMiddle3]
34	29.50900078	0	0	-0.2773039937	1.778594732	-17.72047043	1.0
35	29.50900078	0	0	-0.2800709605	1.787235498	-17.80948067	1.0
36	29.50900078	0	0	-0.2826038897	1.795135856	-17.89087296	1.0
37	29.50900078	0	0	-0.284563452	1.801230907	-17.95368767	1.0
[LeftHandMiddle4]
34	28.3390007	0	0	0	0	0	1.0
35	28.3390007	0	0	0	0	0	1.0
36	28.3390007	0	0	0	0	0	1.0
37	28.3390007	0	0	0	0	0	1.0
[LeftHandRing1]
34	91.04499817	-0.4390000105	-18.65100098	-1.583829045	3.738380194	-26.21943092	1.0
35	91.04499817	-0.4390000105	-18.65100098	-1.584816813	3.743654728	-26.23166656	1.0
36	91.04499817	-0.4390000105	-18.65100098	-1.582835555	3.747923613	-26.20737457	1.0
37	91.04499817	-0.4390000105	-18.65100098	-1.576265812	3.750609636	-26.12655449	1.0
[LeftHandRing2]
34	31.54000092	0	0	-0.5762943029	2.530024529	-25.66446877	1.0
35	31.54000092	0	0	-0.5712426305	2.519655704	-25.55121613	1.0
36	31.54000092	0	0	-0.5650526285	2.506644011	-25.40972519	1.0
37	31.54000092	0	0	-0.5571653843	2.489629984	-25.22558022	1.0
[LeftHandRing3]
34	29.37700081	0	0	-0.4497312903	2.247953892	-22.62893677	1.0
35	29.37700081	0	0	-0.4451852143	2.237212181	-22.51445198	1.0
36	29.37700081	0	0	-0.4396332204	2.223741293	-22.37142944	1.0
37	29.37700081	0	0	-0.4325847924	2.206138134	-22.18529892	1.0
[LeftHandRing4]
34	26.47500038	0	0	0	0	0	1.0
35	26.47500038	0	0	0	0	0	1.0
36	26.47500038	0	0	0	0	0	1.0
37	26.47500038	0	0	0	0	0	1.0
[LeftHandPinky1]
34	80.77799988	-4.887000084	-38.06099701	-3.05186367	5.10091877	-34.77061462	1.0
35	80.77799988	-4.887000084	-38.06099701	-2.848014116	5.13916254	-33.61368942	1.0
36	80.77799988	-4.887000084	-38.06099701	-2.668043613	5.168889046	-32.57113647	1.0
37	80.77799988	-4.887000084	-38.06099701	-2.526463509	5.191669941	-31.75383949	1.0
[LeftHandPinky2]
34	36	0	0	-0.3638212085	2.02706027	-20.30243492	1.0
35	36	0	0	-0.3457982838	1.977882266	-19.78843117	1.0
36	36	0	0	-0.3302149177	1.935117006	-19.34175682	1.0
37	36	0	0	-0.3188662827	1.903790355	-19.01477623	1.0
[LeftHandPinky3]
34	21.14200211	0	0	-0.3326485753	1.940772295	-19.40200043	1.0
35	21.14200211	0	0	-0.315400064	1.891310096	-18.88797188	1.0
36	21.14200211	0	0	-0.3004921377	1.84830606	-18.44135284	1.0
37	21.14200211	0	0	-0.2896425128	1.816819429	-18.11455154	1.0
[LeftHandPinky4]
34	19.75699997	0	0	0	0	0	1.0
35	19.75699997	0	0	0	0	0	1.0
36	19.75699997	0	0	0	0	0	1.0
37	19.75699997	0	0	0	0	0	1.0
[RightShoulder]
34	-45.70000076	109.4620056	-26.28000069	5.991220474	18.78479767	12.99943542	1.0
35	-45.70000076	109.4620056	-26.28000069	5.968747139	18.67111015	13.03405952	1.0
36	-45.70000076	109.4620056	-26.28000069	5.93615818	18.49875641	13.11407089	1.0
37	-45.70000076	109.4620056	-26.28000069	5.887741566	18.23577118	13.26536465	1.0
[RightArm]
34	-105.9280014	-5.248000145	-22.32099915	29.49265289	6.697601795	60.40953827	1.0
35	-105.9280014	-5.248000145	-22.32099915	30.23838234	6.29962492	59.75360107	1.0
36	-105.9280014	-5.248000145	-22.32099915	30.81543159	5.918582439	59.29505539	1.0
37	-105.9280014	-5.248000145	-22.32099915	31.02848625	5.540337086	59.18731308	1.0
[RightForeArm]
34	-278.414978	0	0	-1.232162776e-05	9.778402328	-1.025645997e-05	1.0
35	-278.414978	0	0	-8.905629329e-06	9.765387535	-5.184133443e-06	1.0
36	-278.414978	0	0	-5.795339803e-06	9.700194359	-7.44758097e-07	1.0
37	-278.414978	0	0	-3.969839781e-06	9.515628815	1.580577646e-06	1.0
[RightHand]
34	-283.2879944	0	0.0009999999311	-22.57708931	2.938687801	2.987334967	1.0
35	-283.2879944	0	0.0009999999311	-22.3049469	2.602843761	3.309183121	1.0
36	-283.2879944	0	0.0009999999311	-22.17777634	2.404183865	3.632288218	1.0
37	-283.2879944	0	0.0009999999311	-22.33802032	2.453346014	3.936069727	1.0
[RightHandPinky1]
34	-80.76699829	-4.885000229	-38.06000137	-2.219825506	-4.724046707	35.29766083	1.0
35	-80.76699829	-4.885000229	-38.06000137	-2.150611162	-4.717841148	34.46482849	1.0
36	-80.76699829	-4.885000229	-38.06000137	-2.096945524	-4.721334934	33.82936478	1.0
37	-80.76699829	-4.885000229	-38.06000137	-2.070142746	-4.743434906	33.53822327	1.0
[RightHandPinky2]
34	-36	0	0.0009999999311	-0.2399929166	-1.472804427	18.52801895	1.0
35	-36	0	0.0009999999311	-0.2376863956	-1.465897918	18.43806839	1.0
36	-36	0	0.0009999999311	-0.2357281446	-1.460019231	18.36152458	1.0
37	-36	0	0.0009999999311	-0.2342008203	-1.455430269	18.30177879	1.0
[RightHandPinky3]
34	-21.14200211	0	0	-0.2171176374	-1.402636886	17.59651566	1.0
35	-21.14200211	0	0	-0.2149778157	-1.395876288	17.50889015	1.0
36	-21.14200211	0	0	-0.2131697088	-1.390149951	17.43468475	1.0
37	-21.14200211	0	0	-0.2117758095	-1.385731816	17.3774395	1.0
[RightHandPinky4]
34	-19.75699997	0	0	0	0	0	1.0
35	-19.75699997	0	0	0	0	0	1.0
36	-19.75699997	0	0	0	0	0	1.0
37	-19.75699997	0	0	0	0	0	1.0
[RightHandRing1]
34	-91.03599548	-0.4390000105	-18.65100098	-1.693449736	-2.42079854	29.67563438	1.0
35	-91.03599548	-0.4390000105	-18.65100098	-1.654751182	-2.300393343	29.16011238	1.0
36	-91.03599548	-0.4390000105	-18.65100098	-1.619935036	-2.249472618	28.6942997	1.0
37	-91.03599548	-0.4390000105	-18.65100098	-1.590919614	-2.327069998	28.30322838	1.0
[RightHandRing2]
34	-31.54000092	0	0	-0.5620110035	-2.214884043	28.51767349	1.0
35	-31.54000092	0	0	-0.5604581237	-2.212787151	28.48592949	1.0
36	-31.54000092	0	0	-0.5555561781	-2.203275442	28.35365486	1.0
37	-31.54000092	0	0	-0.543381691	-2.178304911	28.01014137	1.0
[RightHandRing3]
34	-29.37700081	0	0	-0.4494427741	-1.993943691	25.45259666	1.0
35	-29.37700081	0	0	-0.4479682744	-1.991697669	25.41979599	1.0
36	-29.37700081	0	0	-0.4435640275	-1.981912971	25.28710365	1.0
37	-29.37700081	0	0	-0.4327602386	-1.956387043	24.94439507	1.0
[RightHandRing4]
34	-26.47500038	0	0	0	0	0	1.0
35	-26.47500038	0	0	0	0	0	1.0
36	-26.47500038	0	0	0	0	0	1.0
37	-26.47500038	0	0	0	0	0	1.0
[RightHandMiddle1]
34	-95.32500458	0	0	-1.088627934	-3.410598278	21.11894798	1.0
35	-95.32500458	0	0	-1.051074624	-3.322715759	20.55365181	1.0
36	-95.32500458	0	0	-1.022062659	-3.243960142	20.1169281	1.0
37	-95.32500458	0	0	-1.008728385	-3.180889845	19.91682625	1.0
[RightHandMiddle2]
34	-36.98199844	0	0	-0.2475587428	-1.495242953	18.80080986	1.0
35	-36.98199844	0	0	-0.2481907755	-1.497103453	18.82510376	1.0
36	-36.98199844	0	0	-0.2486188859	-1.498363137	18.84156036	1.0
37	-36.98199844	0	0	-0.2486359328	-1.498411655	18.84220314	1.0
[RightHandMiddle3]
34	-29.50900078	0	0	-0.2745774984	-1.574368834	19.81022072	1.0
35	-29.50900078	0	0	-0.2752396166	-1.576210976	19.83439255	1.0
36	-29.50900078	0	0	-0.2756877542	-1.577456951	19.85074425	1.0
37	-29.50900078	0	0	-0.275703758	-1.577499628	19.85130882	1.0
[RightHandMiddle4]
34	-28.3390007	0	0.0009999999311	0	0	0	1.0
35	-28.3390007	0	0.0009999999311	0	0	0	1.0
36	-28.3390007	0	0.0009999999311	0	0	0	1.0
37	-28.3390007	0	0.0009999999311	0	0	0	1.0
[RightHandIndex1]
34	-91.08300018	-5.167999744	22.60099792	0.4925813377	-1.005510569	8.836236954	1.0
35	-91.08300018	-5.167999744	22.60099792	0.5114607215	-0.8615487218	8.173400879	1.0
36	-91.08300018	-5.167999744	22.60099792	0.5199350715	-0.7422019243	7.728153706	1.0
37	-91.08300018	-5.167999744	22.60099792	0.5084471703	-0.6663805842	7.690030575	1.0
[RightHandIndex2]
34	-36.76399994	0	0	-0.1821348965	-1.287230372	16.1068306	1.0
35	-36.76399994	0	0	-0.18176952	-1.285990238	16.09087944	1.0
36	-36.76399994	0	0	-0.1817611605	-1.285962224	16.09053612	1.0
37	-36.76399994	0	0	-0.182413891	-1.288178802	16.11908531	1.0
[RightHandIndex3]
34	-28.83100128	0	0	-0.03218783438	-0.5456976295	6.753277779	1.0
35	-28.83100128	0	0	-0.03202986345	-0.5444141626	6.737335682	1.0
36	-28.83100128	0	0	-0.03202732652	-0.5443847775	6.736992836	1.0
37	-28.83100128	0	0	-0.03231192753	-0.5466772914	6.765532017	1.0
[RightHandIndex4]
34	-23.92700005	0	0	0	0	0	1.0
35	-23.92700005	0	0	0	0	0	1.0
36	-23.92700005	0	0	0	0	0	1.0
37	-23.92700005	0	0	0	0	0	1.0
[RightHandThumb1]
34	-24.64799881	-15.72700024	26.82600021	-1.953249931	-0.314528048	0.8032783866	1.0
35	-24.64799881	-15.72700024	26.82600021	-1.962824702	-0.08140261471	-0.09439108521	1.0
36	-24.64799881	-15.72700024	26.82600021	-1.97894609	0.1312132329	-0.7992732525	1.0
37	-24.64799881	-15.72700024	26.82600021	-2.002957344	0.2824251056	-1.108046174	1.0
[RightHandThumb2]
34	-32.29800034	-18.64699936	18.64699936	21.32417488	-23.11384392	-23.83127594	1.0
35	-32.29800034	-18.64699936	18.64699936	20.93696404	-22.78595734	-23.64455986	1.0
36	-32.29800034	-18.64699936	18.64699936	20.68680954	-22.57243919	-23.52516556	1.0
37	-32.29800034	-18.64699936	18.64699936	20.68978119	-22.57055283	-23.52982712	1.0
[RightHandThumb3]
34	-26.52600098	-15.31399918	15.31399918	-14.9666872	-6.074501514	-11.21945477	1.0
35	-26.52600098	-15.31399918	15.31399918	-14.89858246	-6.202608109	-11.24273396	1.0
36	-26.52600098	-15.31399918	15.31399918	-14.8532877	-6.282390594	-11.25806236	1.0
37	-26.52600098	-15.31399918	15.31399918	-14.85019779	-6.274929523	-11.2587738	1.0
[RightHandThumb4]
34	-19.54599953	-11.28499985	11.28499985	0	0	0	1.0
35	-19.54599953	-11.28499985	11.28499985	0	0	0	1.0
36	-19.54599953	-11.28499985	11.28499985	0	0	0	1.0
37	-19.54599953	-11.28499985	11.28499985	0	0	0	1.0
[LeftUpLeg]
34	82.07800293	-67.51699829	-15.99599934	-24.46377563	17.83130074	11.00342369	1.0
35	82.07800293	-67.51699829	-15.99599934	-23.55600929	17.70526123	10.88596344	1.0
36	82.07800293	-67.51699829	-15.99599934	-22.61530304	17.57808113	10.75629139	1.0
37	82.07800293	-67.51699829	-15.99599934	-21.64977074	17.45733452	10.61218262	1.0
[LeftLeg]
34	0	-443.7049866	2.845999956	25.59067154	-2.82980752	3.120930433	1.0
35	0	-443.7049866	2.845999956	25.01156235	-2.688955784	3.241285324	1.0
36	0	-443.7049866	2.845999956	24.4149704	-2.505260229	3.369679689	1.0
37	0	-443.7049866	2.845999956	23.80985832	-2.260380983	3.502596617	1.0
[LeftFoot]
34	0	-444.2789917	-29.8219986	-1.568328857	0.4018175006	-7.900327206	1.0
35	0	-444.2789917	-29.8219986	-1.590257525	0.4009551108	-7.943442822	1.0
36	0	-444.2789917	-29.8219986	-1.605736375	0.4002784789	-7.980905056	1.0
37	0	-444.2789917	-29.8219986	-1.600435734	0.4006310105	-8.008906364	1.0
[LeftToeBase]
34	0	-87.28699493	107.1060028	-4.247684479	-3.687647222e-06	-7.762051268e-07	1.0
35	0	-87.28699493	107.1060028	-4.252214432	-5.232281183e-06	-9.291672853e-08	1.0
36	0	-87.28699493	107.1060028	-4.263918877	-6.338117146e-06	4.882144822e-07	1.0
37	0	-87.28699493	107.1060028	-4.287900925	-6.608705917e-06	8.79811239e-07	1.0
[RightUpLeg]
34	-82.07800293	-67.51699829	-15.99599934	-13.17241383	-7.766839504	11.20567226	1.0
35	-82.07800293	-67.51699829	-15.99599934	-12.4916544	-7.992891312	10.81648827	1.0
36	-82.07800293	-67.51699829	-15.99599934	-11.79090118	-8.218903542	10.39455128	1.0
37	-82.07800293	-67.51699829	-15.99599934	-11.07533264	-8.439260483	9.931153297	1.0
[RightLeg]
34	0	-443.7049866	2.861999989	18.43222618	-8.362900734	-6.887917042	1.0
35	0	-443.7049866	2.861999989	18.14021111	-8.411395073	-6.784044743	1.0
36	0	-443.7049866	2.861999989	17.83566856	-8.461690903	-6.672704697	1.0
37	0	-443.7049866	2.861999989	17.51683617	-8.514410019	-6.550264835	1.0
[RightFoot]
34	0	-444.2770081	-29.83799934	-7.691010475	-6.158937454	3.630074978	1.0
35	0	-444.2770081	-29.83799934	-7.686327457	-5.907204628	3.58626461	1.0
36	0	-444.2770081	-29.83799934	-7.6833601	-5.611933231	3.539022684	1.0
37	0	-444.2770081	-29.83799934	-7.679701328	-5.253695011	3.490641117	1.0
[RightToeBase]
34	0	-87.28699493	107.1060028	-6.978556156	-4.3326786e-06	-2.18043624e-06	1.0
35	0	-87.28699493	107.1060028	-6.969733238	2.030663381e-06	-2.325415608e-06	1.0
36	0	-87.28699493	107.1060028	-6.965372086	7.64663946e-06	-2.37085078e-06	1.0
37	0	-87.28699493	107.1060028	-6.969364643	1.076608623e-05	-2.343654842e-06	1.0
[EndOfFile]
